<svg width="20" height="20" viewBox="0 0 20 20" fill="none" xmlns="http://www.w3.org/2000/svg">
<g clip-path="url(#clip0_682_11100)">
<path d="M19.3156 10.2222C19.3156 9.39995 19.2499 8.79995 19.1076 8.17773H9.85547V11.8888H15.2862C15.1768 12.8111 14.5855 14.1999 13.2716 15.1332L13.2532 15.2575L16.1785 17.5572L16.3812 17.5777C18.2425 15.8333 19.3156 13.2666 19.3156 10.2222Z" fill="#4285F4"/>
<path d="M9.85398 19.9997C12.5146 19.9997 14.7482 19.1108 16.3797 17.5775L13.2701 15.133C12.438 15.7219 11.3211 16.133 9.85398 16.133C7.24809 16.133 5.03636 14.3886 4.24794 11.9775L4.13237 11.9875L1.09056 14.3764L1.05078 14.4886C2.67125 17.7552 5.99982 19.9997 9.85398 19.9997Z" fill="#34A853"/>
<path d="M4.24826 11.9773C4.04023 11.3551 3.91983 10.6883 3.91983 9.99948C3.91983 9.31055 4.04023 8.64391 4.23731 8.0217L4.2318 7.88918L1.15187 5.46191L1.0511 5.51055C0.383227 6.86613 0 8.38838 0 9.99948C0 11.6106 0.383227 13.1328 1.0511 14.4883L4.24826 11.9773Z" fill="#FBBC05"/>
<path d="M9.85398 3.86664C11.7044 3.86664 12.9526 4.67775 13.6643 5.35557L16.4454 2.6C14.7374 0.988893 12.5146 0 9.85398 0C5.99982 0 2.67125 2.24443 1.05078 5.51107L4.23699 8.02221C5.03636 5.6111 7.24809 3.86664 9.85398 3.86664Z" fill="#EB4335"/>
</g>
<defs>
<clipPath id="clip0_682_11100">
<rect width="20" height="20" fill="white"/>
</clipPath>
</defs>
</svg>
